<svg width="12" height="37" viewBox="0 0 12 37" fill="none" xmlns="http://www.w3.org/2000/svg">
<path d="M5.25 36.1074C5.25 36.5216 5.58579 36.8574 6 36.8574C6.41421 36.8574 6.75 36.5216 6.75 36.1074L5.25 36.1074ZM6.53033 0.577091C6.23744 0.284199 5.76256 0.284199 5.46967 0.577091L0.6967 5.35006C0.403807 5.64296 0.403807 6.11783 0.6967 6.41072C0.989594 6.70361 1.46447 6.70361 1.75736 6.41072L6 2.16808L10.2426 6.41072C10.5355 6.70362 11.0104 6.70362 11.3033 6.41072C11.5962 6.11783 11.5962 5.64296 11.3033 5.35006L6.53033 0.577091ZM6.75 36.1074L6.75 1.10742L5.25 1.10742L5.25 36.1074L6.75 36.1074Z" fill="url(#paint0_linear_44_125)"/>
<defs>
<linearGradient id="paint0_linear_44_125" x1="6.65407" y1="1.10742" x2="18.2758" y2="7.89991" gradientUnits="userSpaceOnUse">
<stop stop-color="#237249"/>
<stop offset="1" stop-color="#35C66B"/>
</linearGradient>
</defs>
</svg>
