<svg width="178" height="178" viewBox="0 0 178 178" fill="none" xmlns="http://www.w3.org/2000/svg">
<g filter="url(#filter0_d_14_28)">
<path d="M32.7396 58.4094C28.1539 52.6074 31.7949 44.0296 39.154 43.2978C44.6129 42.755 48.4357 37.6536 47.4238 32.262C46.0597 24.9935 53.27 19.0903 60.1262 21.8623C65.2121 23.9185 70.9677 21.178 72.5773 15.9337C74.7473 8.8638 83.8751 6.98758 88.6577 12.6283C92.2055 16.8126 98.5754 17.0607 102.438 13.1651C107.645 7.91352 116.599 10.4941 118.212 17.7113C119.409 23.065 124.934 26.245 130.165 24.5906C137.216 22.3603 143.945 28.8065 142.02 35.9468C140.591 41.2435 144.006 46.6268 149.406 47.5926C156.686 48.8946 159.648 57.7296 154.625 63.1573C150.899 67.1835 151.421 73.5369 155.753 76.9016C161.594 81.4376 160.112 90.6375 153.142 93.1092C147.971 94.9426 145.481 100.811 147.753 105.803C150.817 112.534 145.229 119.991 137.909 118.941C132.479 118.161 127.546 122.2 127.238 127.677C126.823 135.061 118.41 139.067 112.416 134.734C107.97 131.521 101.726 132.804 98.9081 137.511C95.1092 143.856 85.7977 143.493 82.5039 136.872C80.0607 131.96 73.9352 130.195 69.2527 133.053C62.9403 136.906 54.8639 132.258 55.0245 124.864C55.1437 119.379 50.5403 114.97 45.0659 115.324C37.686 115.802 32.695 107.933 36.2732 101.461C38.9275 96.6599 36.9007 90.6159 31.8886 88.3859C25.1319 85.3795 24.3696 76.0922 30.5457 72.0243C35.127 69.0068 36.1412 62.7132 32.7396 58.4094Z" fill="url(#paint0_linear_14_28)"/>
</g>
<defs>
<filter id="filter0_d_14_28" x="0.201126" y="0.0950632" width="177.62" height="177.324" filterUnits="userSpaceOnUse" color-interpolation-filters="sRGB">
<feFlood flood-opacity="0" result="BackgroundImageFix"/>
<feColorMatrix in="SourceAlpha" type="matrix" values="0 0 0 0 0 0 0 0 0 0 0 0 0 0 0 0 0 0 127 0" result="hardAlpha"/>
<feOffset dx="-3.84326" dy="13.0671"/>
<feGaussianBlur stdDeviation="11.1454"/>
<feComposite in2="hardAlpha" operator="out"/>
<feColorMatrix type="matrix" values="0 0 0 0 0.0775104 0 0 0 0 0.241623 0 0 0 0 0.157958 0 0 0 0.46 0"/>
<feBlend mode="normal" in2="BackgroundImageFix" result="effect1_dropShadow_14_28"/>
<feBlend mode="normal" in="SourceGraphic" in2="effect1_dropShadow_14_28" result="shape"/>
</filter>
<linearGradient id="paint0_linear_14_28" x1="145.132" y1="13.4189" x2="104.584" y2="123.618" gradientUnits="userSpaceOnUse">
<stop stop-color="#237249"/>
<stop offset="1" stop-color="#35C66B"/>
</linearGradient>
</defs>
</svg>
