<svg width="735" height="318" viewBox="0 0 735 318" fill="none" xmlns="http://www.w3.org/2000/svg">
<path d="M60.7568 29.4986L159.37 14.645C201.831 8.24927 243.857 28.6071 265.16 65.8903L289.663 108.775C310.718 145.625 352.053 165.984 394.1 160.215L585.465 133.957C629.769 127.878 672.998 150.802 692.824 190.886L729.758 265.564" stroke="#D9D9D9" stroke-width="1.4" stroke-linejoin="round"/>
<path d="M32.3921 54.9928L131.005 40.1391C173.466 33.7434 215.493 54.1012 236.795 91.3845L261.298 134.269C282.353 171.119 323.688 191.478 365.735 185.709L557.1 159.452C601.404 153.373 644.634 176.296 664.459 216.38L701.393 291.058" stroke="#D9D9D9" stroke-width="1.4" stroke-linejoin="round"/>
<path d="M4.02698 80.4872L102.64 65.6335C145.101 59.2378 187.128 79.5956 208.43 116.879L232.933 159.763C253.988 196.613 295.323 216.972 337.37 211.203L528.735 184.946C573.039 178.867 616.269 201.79 636.094 241.875L673.028 316.553" stroke="#D9D9D9" stroke-width="1.4" stroke-linejoin="round"/>
</svg>
